<mxfile host="app.diagrams.net" modified="2023-08-28T03:30:06.354Z" agent="Mozilla/5.0 (Macintosh; Intel Mac OS X 10_15_7) AppleWebKit/537.36 (KHTML, like Gecko) Chrome/116.0.0.0 Safari/537.36" etag="GRE5M8UlFguXc9U7kJfr" version="21.6.9" type="github">
  <diagram name="Page-1" id="e7e014a7-5840-1c2e-5031-d8a46d1fe8dd">
    <mxGraphModel dx="1546" dy="830" grid="1" gridSize="10" guides="1" tooltips="1" connect="1" arrows="1" fold="1" page="1" pageScale="1" pageWidth="1169" pageHeight="826" background="none" math="0" shadow="0">
      <root>
        <mxCell id="0" />
        <mxCell id="1" parent="0" />
        <mxCell id="2" value="分布式作业服务" style="swimlane;whiteSpace=wrap" parent="1" vertex="1">
          <mxGeometry x="164.5" y="127" width="275.5" height="573" as="geometry" />
        </mxCell>
        <mxCell id="5" value="" style="ellipse;shape=startState;fillColor=#000000;strokeColor=#ff0000;" parent="2" vertex="1">
          <mxGeometry x="125.5" y="40" width="30" height="30" as="geometry" />
        </mxCell>
        <mxCell id="6" value="" style="edgeStyle=elbowEdgeStyle;elbow=horizontal;verticalAlign=bottom;endArrow=open;endSize=8;strokeColor=#FF0000;endFill=1;rounded=0" parent="2" source="5" target="7" edge="1">
          <mxGeometry x="100" y="40" as="geometry">
            <mxPoint x="140.5" y="110" as="targetPoint" />
          </mxGeometry>
        </mxCell>
        <mxCell id="7" value="创建cron实例" style="" parent="2" vertex="1">
          <mxGeometry x="85.5" y="110" width="110" height="50" as="geometry" />
        </mxCell>
        <mxCell id="8" value="创建分布式锁" style="" parent="2" vertex="1">
          <mxGeometry x="85.5" y="220" width="110" height="50" as="geometry" />
        </mxCell>
        <mxCell id="9" value="" style="endArrow=open;strokeColor=#FF0000;endFill=1;rounded=0" parent="2" source="7" target="8" edge="1">
          <mxGeometry relative="1" as="geometry" />
        </mxCell>
        <mxCell id="10" value="注册cron任务" style="" parent="2" vertex="1">
          <mxGeometry x="85.5" y="325" width="110" height="50" as="geometry" />
        </mxCell>
        <mxCell id="11" value="" style="endArrow=open;strokeColor=#FF0000;endFill=1;rounded=0" parent="2" source="8" target="10" edge="1">
          <mxGeometry relative="1" as="geometry" />
        </mxCell>
        <mxCell id="12" value="" style="edgeStyle=elbowEdgeStyle;elbow=horizontal;strokeColor=#FF0000;endArrow=open;endFill=1;rounded=0" parent="2" source="10" target="7" edge="1">
          <mxGeometry width="100" height="100" relative="1" as="geometry">
            <mxPoint x="185.5" y="290" as="sourcePoint" />
            <mxPoint x="285.5" y="190" as="targetPoint" />
            <Array as="points">
              <mxPoint x="55.5" y="250" />
            </Array>
          </mxGeometry>
        </mxCell>
        <mxCell id="20" value="" style="endArrow=open;strokeColor=#FF0000;endFill=1;rounded=0;entryX=0;entryY=0.5;entryDx=0;entryDy=0;" parent="1" source="10" target="o_Lg_6wjI6wOjPeVNq3g-51" edge="1">
          <mxGeometry relative="1" as="geometry">
            <mxPoint x="470" y="365" as="targetPoint" />
            <Array as="points">
              <mxPoint x="400" y="478" />
              <mxPoint x="400" y="375" />
            </Array>
          </mxGeometry>
        </mxCell>
        <mxCell id="o_Lg_6wjI6wOjPeVNq3g-44" value="调度引擎" style="swimlane;whiteSpace=wrap" vertex="1" parent="1">
          <mxGeometry x="440" y="127" width="290" height="573" as="geometry" />
        </mxCell>
        <mxCell id="o_Lg_6wjI6wOjPeVNq3g-45" value="" style="ellipse;shape=startState;fillColor=#000000;strokeColor=#ff0000;" vertex="1" parent="o_Lg_6wjI6wOjPeVNq3g-44">
          <mxGeometry x="117.5" y="40" width="30" height="30" as="geometry" />
        </mxCell>
        <mxCell id="o_Lg_6wjI6wOjPeVNq3g-46" value="" style="edgeStyle=elbowEdgeStyle;elbow=horizontal;verticalAlign=bottom;endArrow=open;endSize=8;strokeColor=#FF0000;endFill=1;rounded=0" edge="1" parent="o_Lg_6wjI6wOjPeVNq3g-44" source="o_Lg_6wjI6wOjPeVNq3g-45" target="o_Lg_6wjI6wOjPeVNq3g-47">
          <mxGeometry x="40" y="20" as="geometry">
            <mxPoint x="5" y="90" as="targetPoint" />
          </mxGeometry>
        </mxCell>
        <mxCell id="o_Lg_6wjI6wOjPeVNq3g-47" value="创建调度引擎" style="" vertex="1" parent="o_Lg_6wjI6wOjPeVNq3g-44">
          <mxGeometry x="77.5" y="102" width="110" height="50" as="geometry" />
        </mxCell>
        <mxCell id="o_Lg_6wjI6wOjPeVNq3g-48" value="监听任务" style="" vertex="1" parent="o_Lg_6wjI6wOjPeVNq3g-44">
          <mxGeometry x="140.5" y="222" width="110" height="50" as="geometry" />
        </mxCell>
        <mxCell id="o_Lg_6wjI6wOjPeVNq3g-49" value="" style="endArrow=open;strokeColor=#FF0000;endFill=1;rounded=0;entryX=0.355;entryY=0;entryDx=0;entryDy=0;entryPerimeter=0;" edge="1" parent="o_Lg_6wjI6wOjPeVNq3g-44" source="o_Lg_6wjI6wOjPeVNq3g-47" target="o_Lg_6wjI6wOjPeVNq3g-51">
          <mxGeometry relative="1" as="geometry">
            <Array as="points">
              <mxPoint x="53" y="127" />
            </Array>
          </mxGeometry>
        </mxCell>
        <mxCell id="o_Lg_6wjI6wOjPeVNq3g-50" value="" style="endArrow=open;strokeColor=#FF0000;endFill=1;rounded=0;exitX=1;exitY=0.5;exitDx=0;exitDy=0;" edge="1" parent="o_Lg_6wjI6wOjPeVNq3g-44" source="o_Lg_6wjI6wOjPeVNq3g-47">
          <mxGeometry relative="1" as="geometry">
            <mxPoint x="165" y="152" as="sourcePoint" />
            <mxPoint x="225.5" y="222" as="targetPoint" />
            <Array as="points">
              <mxPoint x="225.5" y="127" />
            </Array>
          </mxGeometry>
        </mxCell>
        <mxCell id="o_Lg_6wjI6wOjPeVNq3g-51" value="添加任务" style="" vertex="1" parent="o_Lg_6wjI6wOjPeVNq3g-44">
          <mxGeometry x="15.5" y="222" width="110" height="50" as="geometry" />
        </mxCell>
        <mxCell id="o_Lg_6wjI6wOjPeVNq3g-55" value="满足条件" style="rhombus;whiteSpace=wrap;html=1;fontColor=#000000;fillColor=#ffffc0;strokeColor=#ff0000;" vertex="1" parent="o_Lg_6wjI6wOjPeVNq3g-44">
          <mxGeometry x="155.5" y="312" width="80" height="40" as="geometry" />
        </mxCell>
        <mxCell id="o_Lg_6wjI6wOjPeVNq3g-52" value="获取锁" style="rhombus;whiteSpace=wrap;html=1;fontColor=#000000;fillColor=#ffffc0;strokeColor=#ff0000;" vertex="1" parent="o_Lg_6wjI6wOjPeVNq3g-44">
          <mxGeometry x="155.5" y="392" width="80" height="40" as="geometry" />
        </mxCell>
        <mxCell id="o_Lg_6wjI6wOjPeVNq3g-59" value="执行任务" style="" vertex="1" parent="o_Lg_6wjI6wOjPeVNq3g-44">
          <mxGeometry x="140.5" y="493" width="110" height="50" as="geometry" />
        </mxCell>
        <mxCell id="o_Lg_6wjI6wOjPeVNq3g-56" value="no" style="edgeStyle=orthogonalEdgeStyle;html=1;align=left;verticalAlign=bottom;endArrow=open;endSize=8;strokeColor=#ff0000;rounded=0;entryX=1;entryY=0.5;entryDx=0;entryDy=0;exitX=1;exitY=0.5;exitDx=0;exitDy=0;" edge="1" source="o_Lg_6wjI6wOjPeVNq3g-55" parent="o_Lg_6wjI6wOjPeVNq3g-44" target="o_Lg_6wjI6wOjPeVNq3g-48">
          <mxGeometry x="-1" relative="1" as="geometry">
            <mxPoint x="225.5" y="272" as="targetPoint" />
            <Array as="points">
              <mxPoint x="276" y="332" />
              <mxPoint x="276" y="247" />
            </Array>
          </mxGeometry>
        </mxCell>
        <mxCell id="o_Lg_6wjI6wOjPeVNq3g-57" value="yes" style="edgeStyle=orthogonalEdgeStyle;html=1;align=left;verticalAlign=top;endArrow=open;endSize=8;strokeColor=#ff0000;rounded=0;entryX=0.5;entryY=0;entryDx=0;entryDy=0;" edge="1" source="o_Lg_6wjI6wOjPeVNq3g-55" parent="o_Lg_6wjI6wOjPeVNq3g-44" target="o_Lg_6wjI6wOjPeVNq3g-52">
          <mxGeometry x="-1" relative="1" as="geometry">
            <mxPoint x="85.5" y="352" as="targetPoint" />
          </mxGeometry>
        </mxCell>
        <mxCell id="o_Lg_6wjI6wOjPeVNq3g-54" value="yes" style="edgeStyle=orthogonalEdgeStyle;html=1;align=left;verticalAlign=top;endArrow=open;endSize=8;strokeColor=#ff0000;rounded=0;entryX=0.5;entryY=0;entryDx=0;entryDy=0;" edge="1" source="o_Lg_6wjI6wOjPeVNq3g-52" parent="o_Lg_6wjI6wOjPeVNq3g-44" target="o_Lg_6wjI6wOjPeVNq3g-59">
          <mxGeometry x="-1" relative="1" as="geometry">
            <mxPoint x="85.5" y="352" as="targetPoint" />
          </mxGeometry>
        </mxCell>
        <mxCell id="o_Lg_6wjI6wOjPeVNq3g-61" value="no" style="edgeStyle=orthogonalEdgeStyle;html=1;align=left;verticalAlign=bottom;endArrow=open;endSize=8;strokeColor=#ff0000;rounded=0;entryX=0;entryY=0.5;entryDx=0;entryDy=0;exitX=0;exitY=0.5;exitDx=0;exitDy=0;" edge="1" parent="o_Lg_6wjI6wOjPeVNq3g-44" source="o_Lg_6wjI6wOjPeVNq3g-52" target="o_Lg_6wjI6wOjPeVNq3g-55">
          <mxGeometry x="-1" relative="1" as="geometry">
            <mxPoint x="261" y="257" as="targetPoint" />
            <mxPoint x="246" y="342" as="sourcePoint" />
            <Array as="points">
              <mxPoint x="116" y="412" />
              <mxPoint x="116" y="332" />
            </Array>
          </mxGeometry>
        </mxCell>
      </root>
    </mxGraphModel>
  </diagram>
</mxfile>
